<svg width="129" height="40" fill="none" xmlns="http://www.w3.org/2000/svg"><path fill-rule="evenodd" clip-rule="evenodd" d="m33.307 9.576.938-2.298S33.052 6 31.603 4.554c-1.448-1.446-4.515-.595-4.515-.595L23.594 0H11.325L7.832 3.959s-3.067-.851-4.516.595A123.965 123.965 0 0 0 .675 7.278l.937 2.298L.42 12.98s3.509 13.273 3.92 14.894c.81 3.191 1.363 4.425 3.663 6.042s6.476 4.426 7.157 4.851c.682.426 1.534 1.15 2.3 1.15.768 0 1.62-.724 2.301-1.15.682-.425 4.857-3.234 7.157-4.85 2.3-1.618 2.855-2.852 3.664-6.043.411-1.621 3.92-14.894 3.92-14.894l-1.194-3.404Z" fill="url(#a)"/><path d="M21.805 7.193c.511 0 4.303-.724 4.303-.724s4.493 5.426 4.493 6.586c0 .958-.386 1.334-.841 1.775a8.084 8.084 0 0 0-.292.293l-3.37 3.573c-.033.036-.07.073-.11.113-.336.337-.83.835-.482 1.66l.072.17c.383.894.856 1.999.254 3.118-.64 1.191-1.737 1.986-2.44 1.854-.703-.131-2.354-.993-2.96-1.386-.608-.394-2.532-1.979-2.532-2.585 0-.506 1.384-1.348 2.056-1.756.134-.082.24-.146.3-.187.07-.047.186-.119.329-.207.613-.381 1.721-1.069 1.75-1.374.034-.376.02-.486-.474-1.415a19.82 19.82 0 0 0-.356-.627c-.47-.81-.998-1.716-.881-2.365.132-.733 1.281-1.153 2.255-1.51l.355-.13 1.014-.38c.973-.364 2.053-.769 2.23-.85.248-.114.184-.223-.563-.293l-.363-.038c-.924-.098-2.63-.279-3.459-.048l-.538.147c-.931.252-2.073.56-2.182.739a1.53 1.53 0 0 1-.056.083c-.105.149-.173.246-.057.879.034.188.105.56.193 1.018.258 1.342.659 3.436.71 3.906.006.066.014.13.022.19.064.525.107.875-.503 1.014l-.16.037c-.688.157-1.697.389-2.062.389-.365 0-1.375-.232-2.064-.39a73.958 73.958 0 0 0-.158-.036c-.61-.14-.568-.489-.503-1.013l.022-.19c.05-.472.453-2.57.71-3.913.088-.456.159-.824.193-1.012.116-.633.047-.73-.057-.88-.018-.025-.037-.051-.056-.083-.11-.178-1.251-.486-2.183-.738a76.389 76.389 0 0 1-.538-.147c-.829-.23-2.534-.05-3.458.048l-.363.038c-.747.07-.811.179-.564.292.178.082 1.258.486 2.23.85l1.015.38c.114.044.233.087.355.132.973.356 2.123.776 2.255 1.509.117.649-.41 1.555-.882 2.364-.127.22-.25.43-.355.628-.495.93-.508 1.04-.474 1.415.028.305 1.136.992 1.75 1.373.142.09.259.161.328.208.061.041.166.105.3.186.672.41 2.056 1.25 2.056 1.757 0 .606-1.924 2.191-2.53 2.585-.608.393-2.259 1.255-2.961 1.386-.703.132-1.8-.663-2.44-1.854-.603-1.12-.13-2.224.253-3.119l.072-.168c.35-.826-.146-1.324-.482-1.661a3.72 3.72 0 0 1-.11-.113l-3.369-3.573a9.156 9.156 0 0 0-.292-.292c-.455-.442-.841-.818-.841-1.776 0-1.16 4.493-6.586 4.493-6.586s3.791.724 4.303.724c.407 0 1.195-.271 2.016-.554.208-.071.418-.143.625-.212 1.022-.34 1.704-.343 1.704-.343s.681.002 1.704.343c.206.069.416.14.624.212.822.283 1.61.554 2.017.554Z" fill="#fff"/><path d="M21.154 26.384c.802.412 1.37.705 1.585.84.278.173.109.501-.144.68-.254.179-3.659 2.812-3.989 3.103l-.134.12c-.318.287-.724.652-1.012.652-.288 0-.695-.366-1.013-.652a16.344 16.344 0 0 0-.133-.12c-.33-.29-3.736-2.924-3.989-3.103-.253-.179-.423-.507-.145-.68.215-.135.784-.428 1.587-.841l.762-.393c1.2-.62 2.697-1.149 2.93-1.149.234 0 1.73.528 2.931 1.149l.764.394Z" fill="#fff"/><path d="M49.872 13.47c1.015-.534 2.175-.801 3.477-.801 1.517 0 2.89.375 4.116 1.122 1.227.747 2.2 1.81 2.916 3.189.715 1.378 1.072 2.973 1.072 4.79 0 1.817-.357 3.425-1.072 4.823-.715 1.398-1.69 2.483-2.916 3.253-1.23.77-2.602 1.154-4.116 1.154-1.326 0-2.483-.262-3.477-.785-.994-.523-1.79-1.2-2.386-2.035v2.532H43V7h4.486v8.555c.575-.854 1.372-1.55 2.386-2.081v-.003ZM56.218 19c-.439-.78-1.015-1.372-1.73-1.78a4.62 4.62 0 0 0-2.322-.607 4.44 4.44 0 0 0-2.291.625c-.715.416-1.294 1.02-1.73 1.811-.439.791-.657 1.721-.657 2.788 0 1.067.218 1.997.657 2.788.44.79 1.015 1.392 1.73 1.811.715.416 1.48.625 2.29.625.812 0 1.608-.212 2.323-.64.715-.427 1.294-1.034 1.73-1.825.439-.79.657-1.73.657-2.82 0-1.09-.218-1.991-.657-2.77V19Zm13.328-5.497c.93-.535 1.992-.802 3.19-.802v4.709h-1.187c-1.41 0-2.473.331-3.189.994-.715.663-1.072 1.817-1.072 3.46v8.842h-4.486v-17.75h4.486v2.756a6.307 6.307 0 0 1 2.258-2.212v.003Zm4.838 3.494c.715-1.39 1.686-2.456 2.915-3.203 1.227-.748 2.602-1.123 4.117-1.123 1.325 0 2.482.268 3.476.803.995.535 1.788 1.206 2.387 2.017V12.96h4.517v17.75H87.28v-2.596c-.575.835-1.372 1.524-2.387 2.067-1.014.544-2.183.817-3.508.817-1.495 0-2.858-.384-4.085-1.154-1.23-.77-2.2-1.852-2.915-3.253-.715-1.398-1.073-3.006-1.073-4.823 0-1.816.358-3.386 1.073-4.773v.003Zm12.255 2.035c-.427-.78-1.002-1.378-1.73-1.794a4.635 4.635 0 0 0-2.34-.625c-.834 0-1.601.204-2.307.608-.704.407-1.276 1-1.716 1.779-.438.78-.657 1.703-.657 2.77s.219 2.003.657 2.803c.44.802 1.015 1.415 1.73 1.843.715.427 1.48.64 2.29.64.812 0 1.614-.21 2.341-.626.727-.415 1.302-1.014 1.73-1.793.427-.78.64-1.715.64-2.803 0-1.087-.216-2.023-.64-2.802h.002Zm15.669 7.546 4.486-13.619h4.773l-6.57 17.75h-5.448l-6.537-17.75h4.805l4.485 13.62h.006Zm26.244-3.398h-12.976c.107 1.282.555 2.285 1.346 3.012.79.727 1.761 1.09 2.915 1.09 1.666 0 2.852-.715 3.558-2.148h4.838c-.512 1.709-1.495 3.113-2.948 4.212-1.454 1.102-3.236 1.651-5.352 1.651-1.709 0-3.241-.378-4.599-1.137-1.357-.758-2.412-1.83-3.171-3.22-.759-1.39-1.137-2.992-1.137-4.806s.372-3.45 1.122-4.837c.747-1.39 1.794-2.456 3.14-3.203 1.346-.748 2.895-1.123 4.645-1.123 1.75 0 3.198.364 4.535 1.09a7.678 7.678 0 0 1 3.108 3.094c.735 1.334 1.104 2.869 1.104 4.598 0 .64-.043 1.219-.128 1.73v-.003Zm-4.517-3.011c-.02-1.154-.439-2.079-1.25-2.77-.811-.696-1.805-1.041-2.98-1.041-1.11 0-2.046.337-2.802 1.008-.759.672-1.224 1.608-1.393 2.803h8.428-.003Z" fill="#E3E3E8"/><defs><linearGradient id="a" x1=".419" y1="40.199" x2="34.5" y2="40.199" gradientUnits="userSpaceOnUse"><stop stop-color="#FF5601"/><stop offset=".5" stop-color="#FF4000"/><stop offset="1" stop-color="#FF1F01"/></linearGradient></defs></svg>